<svg width="18" height="18" viewBox="0 0 18 18" fill="none" xmlns="http://www.w3.org/2000/svg">
<path d="M9 14.1855C9.48541 14.1855 9.87891 13.792 9.87891 13.3066C9.87891 12.8212 9.48541 12.4277 9 12.4277C8.51459 12.4277 8.12109 12.8212 8.12109 13.3066C8.12109 13.792 8.51459 14.1855 9 14.1855Z" fill="white"/>
<path d="M9 0C4.02595 0 0 4.02528 0 9C0 13.974 4.02528 18 9 18C13.974 18 18 13.9747 18 9C18 4.02595 13.9747 0 9 0ZM9 16.5938C4.80315 16.5938 1.40625 13.1974 1.40625 9C1.40625 4.80315 4.80259 1.40625 9 1.40625C13.1968 1.40625 16.5938 4.80259 16.5938 9C16.5938 13.1968 13.1974 16.5938 9 16.5938Z" fill="white"/>
<path d="M9 4.51758C7.44919 4.51758 6.1875 5.77927 6.1875 7.33008C6.1875 7.71841 6.50229 8.0332 6.89062 8.0332C7.27896 8.0332 7.59375 7.71841 7.59375 7.33008C7.59375 6.55467 8.22459 5.92383 9 5.92383C9.77541 5.92383 10.4062 6.55467 10.4062 7.33008C10.4062 8.10548 9.77541 8.73633 9 8.73633C8.61166 8.73633 8.29688 9.05112 8.29688 9.43945V11.1973C8.29688 11.5856 8.61166 11.9004 9 11.9004C9.38834 11.9004 9.70312 11.5856 9.70312 11.1973V10.0536C10.9148 9.7406 11.8125 8.63821 11.8125 7.33008C11.8125 5.77927 10.5508 4.51758 9 4.51758Z" fill="white"/>
</svg>
