<svg width="58" height="58" viewBox="0 0 58 58" fill="none" xmlns="http://www.w3.org/2000/svg">
<path d="M29.0502 20.6238L17.955 31.6949L21.1319 34.8718L25.5845 30.3952L26.6434 27.7237V51.6952H31.4569V27.7479L32.4438 30.3712L36.9684 34.8718L40.1213 31.719L29.0502 20.6238Z" fill="white"/>
<path d="M44.6941 18.0729H44.4535C41.8662 11.0441 35.1925 6.35565 27.7029 6.30511C17.7739 6.23809 9.67041 14.2329 9.60351 24.162C9.60351 24.547 9.60351 24.908 9.60351 25.2932C4.24671 25.3463 -0.0526497 29.732 0.00048729 35.0888C0.0536243 40.4456 4.43929 44.7449 9.79609 44.6918H21.83V39.8782H9.79597C7.10426 39.8782 4.92226 37.6962 4.92226 35.0045C4.92226 32.3128 7.10426 30.1308 9.79597 30.1308L14.6096 30.2512C14.6096 30.2512 14.3929 25.2932 14.3929 24.1621C14.34 17.9603 18.6305 12.5658 24.6852 11.2215C31.7702 9.64834 38.7889 14.1167 40.362 21.2017L40.8915 23.4641L43.1538 23.0549C43.6611 22.9515 44.1766 22.8951 44.6941 22.8864C49.3863 22.8864 53.1901 26.6902 53.1901 31.3824C53.1901 36.0746 49.3863 39.8783 44.6941 39.8783H36.2704V44.6919H44.6941C52.0418 44.6899 57.9978 38.7339 57.9998 31.3862C58.002 24.0354 52.0447 18.0749 44.6941 18.0729Z" fill="white"/>
</svg>
